<?xml version="1.0" encoding="UTF-8"?>
<svg width="15px" height="12px" viewBox="0 0 15 12" version="1.1" xmlns="http://www.w3.org/2000/svg" xmlns:xlink="http://www.w3.org/1999/xlink">
    <!-- Generator: Sketch 47.1 (45422) - http://www.bohemiancoding.com/sketch -->
    <title>Fill 1</title>
    <desc>Created with Sketch.</desc>
    <defs></defs>
    <g id="Page-1" stroke="none" stroke-width="1" fill="none" fill-rule="evenodd">
        <g id="Main" transform="translate(-99.000000, -588.000000)" fill="#FFFFFF">
            <g id="Group" transform="translate(81.000000, 575.000000)">
                <g id="Group-2" transform="translate(18.000000, 11.000000)">
                    <path d="M0.202391581,13.1818073 C1.13203484,9.82715789 3.01764776,7.45766351 5.76929175,6.18637278 C6.53180412,5.83400415 8.23539565,5.32748914 8.65959601,5.32701264 C8.88890961,5.32677439 8.8898626,5.32010345 8.8898626,3.66344676 L8.8898626,2 L11.7306113,4.8407487 L14.57136,7.6814974 L11.7306113,10.5222461 L8.8898626,13.3629948 L8.8898626,11.6996672 L8.8898626,10.0362204 L8.19870547,10.036816 C6.57611823,10.0381264 4.28596039,10.5938396 3.05433793,11.2849967 C2.2317871,11.746602 1.45402687,12.3709306 0.68162721,13.1897886 L0,13.9123944 L0.202391581,13.1818073 Z" id="Fill-1"></path>
                </g>
            </g>
        </g>
    </g>
</svg>