<?xml version="1.0" encoding="UTF-8"?>
<svg width="134px" height="155px" viewBox="0 0 134 155" version="1.1" xmlns="http://www.w3.org/2000/svg" xmlns:xlink="http://www.w3.org/1999/xlink">
    <!-- Generator: Sketch 47.1 (45422) - http://www.bohemiancoding.com/sketch -->
    <title>sad_phone</title>
    <desc>Created with Sketch.</desc>
    <defs></defs>
    <g id="Page-1" stroke="none" stroke-width="1" fill="none" fill-rule="evenodd">
        <g id="Fallback" transform="translate(-121.000000, -167.000000)" fill-rule="nonzero">
            <g id="sad_phone" transform="translate(121.000000, 167.000000)">
                <path d="M132.930351,139.488519 L67.5289474,139.488519 C66.9381965,139.488519 66.4592982,139.020739 66.4592982,138.443704 C66.4592982,137.866668 66.9381965,137.398889 67.5289474,137.398889 L132.930351,137.398889 C133.521102,137.398889 134,137.866668 134,138.443704 C134,139.020739 133.521102,139.488519 132.930351,139.488519 L132.930351,139.488519 Z" id="Shape" fill="#3C5993"></path>
                <path d="M64.5080702,139.488519 L59.1598246,139.488519 C58.5690737,139.488519 58.0901754,139.020739 58.0901754,138.443704 C58.0901754,137.866668 58.5690737,137.398889 59.1598246,137.398889 L64.5080702,137.398889 C65.0988211,137.398889 65.5777193,137.866668 65.5777193,138.443704 C65.5777193,139.020739 65.0988211,139.488519 64.5080702,139.488519 L64.5080702,139.488519 Z" id="Shape" fill="#3C5993"></path>
                <path d="M56.4915789,139.488519 L39.9649123,139.488519 C39.3741614,139.488519 38.8952632,139.020739 38.8952632,138.443704 C38.8952632,137.866668 39.3741614,137.398889 39.9649123,137.398889 L56.5385965,137.398889 C57.1293474,137.398889 57.6082456,137.866668 57.6082456,138.443704 C57.6082456,139.020739 57.1293474,139.488519 56.5385965,139.488519 L56.4915789,139.488519 Z" id="Shape" fill="#3C5993"></path>
                <path d="M32.6066667,139.488519 L1.06964912,139.488519 C0.478898225,139.488519 7.23461197e-17,139.020739 0,138.443704 C-7.23461197e-17,137.866668 0.478898225,137.398889 1.06964912,137.398889 L32.6066667,137.398889 C33.1974176,137.398889 33.6763158,137.866668 33.6763158,138.443704 C33.6763158,139.020739 33.1974176,139.488519 32.6066667,139.488519 L32.6066667,139.488519 Z" id="Shape" fill="#3C5993"></path>
                <path d="M122.245614,144.368148 L97.8905263,144.368148 C97.2997755,144.368148 96.8208774,143.900369 96.8208774,143.323333 C96.8208774,142.746298 97.2997755,142.278519 97.8905263,142.278519 L122.245614,142.278519 C122.836365,142.278519 123.315263,142.746298 123.315263,143.323333 C123.315263,143.900369 122.836365,144.368148 122.245614,144.368148 L122.245614,144.368148 Z" id="Shape" fill="#3C5993"></path>
                <path d="M76.4975439,144.368148 L11.754386,144.368148 C11.1636351,144.368148 10.684737,143.900369 10.684737,143.323333 C10.684737,142.746298 11.1636351,142.278519 11.754386,142.278519 L76.4975439,142.278519 C77.0882947,142.278519 77.5671928,142.746298 77.5671928,143.323333 C77.5671928,143.900369 77.0882947,144.368148 76.4975439,144.368148 L76.4975439,144.368148 Z" id="Shape" fill="#3C5993"></path>
                <path d="M39.1421053,149.259259 L29.5740351,149.259259 C29.1918862,149.259259 28.8387661,149.060119 28.6476916,148.736852 C28.4566172,148.413585 28.4566172,148.015304 28.6476916,147.692037 C28.8387661,147.36877 29.1918862,147.16963 29.5740351,147.16963 L39.1421053,147.16963 C39.7328562,147.16963 40.2117544,147.637409 40.2117544,148.214444 C40.2117544,148.79148 39.7328562,149.259259 39.1421053,149.259259 L39.1421053,149.259259 Z" id="Shape" fill="#3C5993"></path>
                <path d="M73.3591228,154.115926 L63.7910526,154.115926 C63.2003017,154.115926 62.7214035,153.648146 62.7214035,153.071111 C62.7214035,152.494076 63.2003017,152.026296 63.7910526,152.026296 L73.3591228,152.026296 C73.9498737,152.026296 74.4287719,152.494076 74.4287719,153.071111 C74.4287719,153.648146 73.9498737,154.115926 73.3591228,154.115926 Z" id="Shape" fill="#3C5993"></path>
                <path d="M104.425965,149.259259 L46.0301754,149.259259 C45.6480266,149.259259 45.2949064,149.060119 45.103832,148.736852 C44.9127575,148.413585 44.9127575,148.015304 45.103832,147.692037 C45.2949064,147.36877 45.6480266,147.16963 46.0301754,147.16963 L104.425965,147.16963 C105.016716,147.16963 105.495614,147.637409 105.495614,148.214444 C105.495614,148.79148 105.016716,149.259259 104.425965,149.259259 L104.425965,149.259259 Z" id="Shape" fill="#3C5993"></path>
                <path d="M114.017544,134.333333 L114.017544,15.3507407 C113.985221,10.0340117 109.56355,5.740647 104.120351,5.74074074 L35.7568421,5.74074074 C30.3136432,5.740647 25.8919722,10.0340117 25.8596491,15.3507407 L25.8596491,134.333333 L114.017544,134.333333 Z" id="Shape" fill="#C8D8EE"></path>
                <path d="M108.140351,131.038148 C107.166586,131.038148 106.377193,130.267083 106.377193,129.315926 L106.377193,123.196296 C106.377193,122.245139 107.166586,121.474074 108.140351,121.474074 C109.114116,121.474074 109.903509,122.245139 109.903509,123.196296 L109.903509,129.315926 C109.903509,130.267083 109.114116,131.038148 108.140351,131.038148 Z" id="Shape" fill="#3C5993"></path>
                <path d="M108.140351,117.202963 C107.166586,117.202963 106.377193,116.431898 106.377193,115.480741 L106.377193,107.041852 C106.377193,106.090695 107.166586,105.31963 108.140351,105.31963 C109.114116,105.31963 109.903509,106.090695 109.903509,107.041852 L109.903509,115.480741 C109.903509,116.431898 109.114116,117.202963 108.140351,117.202963 L108.140351,117.202963 Z" id="Shape" fill="#3C5993"></path>
                <path d="M95.2810526,126.296296 L36.3680702,126.296296 C34.5040162,126.296389 32.7173182,125.568407 31.4058731,124.27447 C30.094428,122.980534 29.3671361,121.22809 29.3859649,119.407407 L29.3859649,18.2440741 C29.4182315,14.4999303 32.5347957,11.4813488 36.3680702,11.4814815 L95.2810526,11.4814815 C99.1143271,11.4813488 102.230891,14.4999303 102.263158,18.2440741 L102.263158,119.407407 C102.281987,121.22809 101.554695,122.980534 100.24325,124.27447 C98.9318046,125.568407 97.1451066,126.296389 95.2810526,126.296296 Z M36.3680702,13.7777778 C33.8330907,13.7775784 31.7690119,15.7681492 31.7368421,18.2440741 L31.7368421,119.407407 C31.7179498,120.619059 32.1975283,121.787458 33.0681082,122.650775 C33.938688,123.514093 35.1274744,124.000141 36.3680702,124 L95.2810526,124 C96.5216484,124.000141 97.7104348,123.514093 98.5810146,122.650775 C99.4515945,121.787458 99.931173,120.619059 99.9122807,119.407407 L99.9122807,18.2440741 C99.8801109,15.7681492 97.8160321,13.7775784 95.2810526,13.7777778 L36.3680702,13.7777778 Z" id="Shape" fill="#3C5993"></path>
                <ellipse id="Oval" fill="#3C5993" cx="49.3684211" cy="43.5722222" rx="5.87719298" ry="5.74074074"></ellipse>
                <ellipse id="Oval" fill="#3C5993" cx="79.9298246" cy="43.5722222" rx="5.87719298" ry="5.74074074"></ellipse>
                <path d="M73.0526316,74.9625926 C72.8076597,74.9610471 72.5693035,74.8847777 72.3708772,74.7444444 C67.9214436,71.4664069 61.7864511,71.4664069 57.3370175,74.7444444 C56.8294095,75.1169247 56.1107193,75.0283642 55.7137214,74.5444138 C55.3167234,74.0604634 55.3849037,73.3560363 55.8677193,72.9533333 C61.1591094,69.0552839 68.4547503,69.0552839 73.7461404,72.9533333 C74.1034198,73.2588921 74.2373753,73.7444239 74.0856648,74.1839651 C73.9339544,74.6235063 73.5263828,74.930705 73.0526316,74.9625926 Z" id="Shape" fill="#3C5993"></path>
                <path d="M23.5087719,134.333333 L23.5087719,11.8488889 C23.5152468,7.20986462 27.3636928,3.45076896 32.1129825,3.44444444 L97.7729825,3.44444444 C102.522272,3.45076896 106.370718,7.20986462 106.377193,11.8488889 L106.377193,100.876296 C106.377193,101.827453 107.166586,102.598519 108.140351,102.598519 C109.114116,102.598519 109.903509,101.827453 109.903509,100.876296 L109.903509,11.8488889 C109.897029,5.30755173 104.469801,0.00632930987 97.7729825,0 L32.1129825,0 C25.4161636,0.00632930987 19.9889359,5.30755173 19.9824561,11.8488889 L19.9824561,134.333333 L23.5087719,134.333333 Z" id="Shape" fill="#3C5993"></path>
                <path d="M68.857193,134.333333 C67.9207791,132.244884 65.8078434,130.895653 63.4736842,130.895653 C61.139525,130.895653 59.0265894,132.244884 58.0901754,134.333333 L68.857193,134.333333 Z" id="Shape" fill="#3C5993"></path>
            </g>
        </g>
    </g>
</svg>